; NON-PLATED HOLES START AT T1
; THROUGH (PLATED) HOLES START AT T100
M48
INCH
T1C0.086614
T100C0.036111
T101C0.022422
T102C0.031496
T103C0.047244
%
T1
X022222Y000747
X022222Y014748
X001222Y000747
X001222Y014748
T100
X013222Y006748
X022222Y006748
X013222Y011748
X013222Y009748
X022222Y010748
X022222Y008748
X022222Y005748
X022222Y004748
X013222Y010748
X013222Y005748
X013222Y008748
X022222Y009748
X022222Y007748
X013222Y004748
X022222Y011748
X013222Y007748
T101
X007265Y013317
X009238Y013317
X011281Y001747
X005222Y001747
T102
X002222Y007748
X002222Y012748
X002222Y009748
X002222Y011748
X002222Y008748
X002222Y010748
T103
X002222Y002747
X002222Y004265
T00
M30
