G04 MADE WITH FRITZING*
G04 WWW.FRITZING.ORG*
G04 DOUBLE SIDED*
G04 HOLES PLATED*
G04 CONTOUR ON CENTER OF CONTOUR VECTOR*
%ASAXBY*%
%FSLAX23Y23*%
%MOIN*%
%OFA0B0*%
%SFA1.0B1.0*%
%ADD10C,0.080000*%
%ADD11C,0.047978*%
%ADD12C,0.077778*%
%ADD13C,0.051496*%
%ADD14C,0.024000*%
%ADD15R,0.001000X0.001000*%
%LNCOPPER0*%
G90*
G70*
G54D10*
X222Y275D03*
X222Y427D03*
G54D11*
X727Y1332D03*
X924Y1332D03*
X1128Y175D03*
X522Y175D03*
G54D12*
X1322Y1175D03*
X1322Y1075D03*
X1322Y975D03*
X1322Y875D03*
X1322Y775D03*
X1322Y675D03*
X1322Y575D03*
X1322Y475D03*
X2222Y475D03*
X2222Y575D03*
X2222Y675D03*
X2222Y775D03*
X2222Y875D03*
X2222Y975D03*
X2222Y1075D03*
X2222Y1175D03*
G54D13*
X222Y1275D03*
X222Y1175D03*
X222Y1075D03*
X222Y975D03*
X222Y875D03*
X222Y775D03*
G54D14*
X923Y376D02*
X1323Y376D01*
D02*
X722Y574D02*
X923Y376D01*
D02*
X245Y861D02*
X722Y574D01*
D02*
X1323Y376D02*
X2194Y569D01*
D02*
X244Y759D02*
X923Y275D01*
D02*
X923Y275D02*
X1421Y275D01*
D02*
X1421Y275D02*
X1522Y376D01*
D02*
X1522Y376D02*
X2193Y471D01*
D02*
X222Y1474D02*
X1323Y1474D01*
D02*
X222Y1302D02*
X222Y1474D01*
D02*
X1323Y1474D02*
X2197Y989D01*
D02*
X248Y968D02*
X1294Y682D01*
D02*
X622Y1175D02*
X1021Y1175D01*
D02*
X1021Y1175D02*
X1222Y1374D01*
D02*
X248Y1081D02*
X622Y1175D01*
D02*
X1222Y1374D02*
X2022Y675D01*
D02*
X2022Y675D02*
X2193Y675D01*
G54D15*
X197Y1301D02*
X247Y1301D01*
X196Y1300D02*
X247Y1300D01*
X196Y1299D02*
X247Y1299D01*
X196Y1298D02*
X247Y1298D01*
X196Y1297D02*
X247Y1297D01*
X196Y1296D02*
X247Y1296D01*
X196Y1295D02*
X247Y1295D01*
X196Y1294D02*
X247Y1294D01*
X196Y1293D02*
X247Y1293D01*
X196Y1292D02*
X247Y1292D01*
X196Y1291D02*
X218Y1291D01*
X226Y1291D02*
X247Y1291D01*
X196Y1290D02*
X215Y1290D01*
X229Y1290D02*
X247Y1290D01*
X196Y1289D02*
X213Y1289D01*
X230Y1289D02*
X247Y1289D01*
X196Y1288D02*
X212Y1288D01*
X232Y1288D02*
X247Y1288D01*
X196Y1287D02*
X210Y1287D01*
X233Y1287D02*
X247Y1287D01*
X196Y1286D02*
X209Y1286D01*
X234Y1286D02*
X247Y1286D01*
X196Y1285D02*
X209Y1285D01*
X235Y1285D02*
X247Y1285D01*
X196Y1284D02*
X208Y1284D01*
X236Y1284D02*
X247Y1284D01*
X196Y1283D02*
X207Y1283D01*
X236Y1283D02*
X247Y1283D01*
X196Y1282D02*
X207Y1282D01*
X237Y1282D02*
X247Y1282D01*
X196Y1281D02*
X206Y1281D01*
X237Y1281D02*
X247Y1281D01*
X196Y1280D02*
X206Y1280D01*
X237Y1280D02*
X247Y1280D01*
X196Y1279D02*
X206Y1279D01*
X238Y1279D02*
X247Y1279D01*
X196Y1278D02*
X206Y1278D01*
X238Y1278D02*
X247Y1278D01*
X196Y1277D02*
X206Y1277D01*
X238Y1277D02*
X247Y1277D01*
X196Y1276D02*
X205Y1276D01*
X238Y1276D02*
X247Y1276D01*
X196Y1275D02*
X206Y1275D01*
X238Y1275D02*
X247Y1275D01*
X196Y1274D02*
X206Y1274D01*
X238Y1274D02*
X247Y1274D01*
X196Y1273D02*
X206Y1273D01*
X238Y1273D02*
X247Y1273D01*
X196Y1272D02*
X206Y1272D01*
X237Y1272D02*
X247Y1272D01*
X196Y1271D02*
X206Y1271D01*
X237Y1271D02*
X247Y1271D01*
X196Y1270D02*
X207Y1270D01*
X237Y1270D02*
X247Y1270D01*
X196Y1269D02*
X207Y1269D01*
X236Y1269D02*
X247Y1269D01*
X196Y1268D02*
X208Y1268D01*
X236Y1268D02*
X247Y1268D01*
X196Y1267D02*
X208Y1267D01*
X235Y1267D02*
X247Y1267D01*
X196Y1266D02*
X209Y1266D01*
X235Y1266D02*
X247Y1266D01*
X196Y1265D02*
X210Y1265D01*
X234Y1265D02*
X247Y1265D01*
X196Y1264D02*
X211Y1264D01*
X233Y1264D02*
X247Y1264D01*
X196Y1263D02*
X212Y1263D01*
X231Y1263D02*
X247Y1263D01*
X196Y1262D02*
X214Y1262D01*
X230Y1262D02*
X247Y1262D01*
X196Y1261D02*
X216Y1261D01*
X228Y1261D02*
X247Y1261D01*
X196Y1260D02*
X220Y1260D01*
X223Y1260D02*
X247Y1260D01*
X196Y1259D02*
X247Y1259D01*
X196Y1258D02*
X247Y1258D01*
X196Y1257D02*
X247Y1257D01*
X196Y1256D02*
X247Y1256D01*
X196Y1255D02*
X247Y1255D01*
X196Y1254D02*
X247Y1254D01*
X196Y1253D02*
X247Y1253D01*
X196Y1252D02*
X247Y1252D01*
X196Y1251D02*
X247Y1251D01*
X197Y1250D02*
X247Y1250D01*
X182Y316D02*
X261Y316D01*
X182Y315D02*
X261Y315D01*
X182Y314D02*
X261Y314D01*
X182Y313D02*
X261Y313D01*
X182Y312D02*
X261Y312D01*
X182Y311D02*
X261Y311D01*
X182Y310D02*
X261Y310D01*
X182Y309D02*
X261Y309D01*
X182Y308D02*
X261Y308D01*
X182Y307D02*
X261Y307D01*
X182Y306D02*
X261Y306D01*
X182Y305D02*
X261Y305D01*
X182Y304D02*
X261Y304D01*
X182Y303D02*
X261Y303D01*
X182Y302D02*
X261Y302D01*
X182Y301D02*
X261Y301D01*
X182Y300D02*
X261Y300D01*
X182Y299D02*
X216Y299D01*
X228Y299D02*
X261Y299D01*
X182Y298D02*
X212Y298D01*
X231Y298D02*
X261Y298D01*
X182Y297D02*
X210Y297D01*
X233Y297D02*
X261Y297D01*
X182Y296D02*
X208Y296D01*
X235Y296D02*
X261Y296D01*
X182Y295D02*
X207Y295D01*
X236Y295D02*
X261Y295D01*
X182Y294D02*
X206Y294D01*
X238Y294D02*
X261Y294D01*
X182Y293D02*
X205Y293D01*
X239Y293D02*
X261Y293D01*
X182Y292D02*
X204Y292D01*
X240Y292D02*
X261Y292D01*
X182Y291D02*
X203Y291D01*
X240Y291D02*
X261Y291D01*
X182Y290D02*
X202Y290D01*
X241Y290D02*
X261Y290D01*
X182Y289D02*
X201Y289D01*
X242Y289D02*
X261Y289D01*
X182Y288D02*
X201Y288D01*
X243Y288D02*
X261Y288D01*
X182Y287D02*
X200Y287D01*
X243Y287D02*
X261Y287D01*
X182Y286D02*
X200Y286D01*
X244Y286D02*
X261Y286D01*
X182Y285D02*
X199Y285D01*
X244Y285D02*
X261Y285D01*
X182Y284D02*
X199Y284D01*
X244Y284D02*
X261Y284D01*
X182Y283D02*
X199Y283D01*
X245Y283D02*
X261Y283D01*
X182Y282D02*
X198Y282D01*
X245Y282D02*
X261Y282D01*
X182Y281D02*
X198Y281D01*
X245Y281D02*
X261Y281D01*
X182Y280D02*
X198Y280D01*
X245Y280D02*
X261Y280D01*
X182Y279D02*
X198Y279D01*
X246Y279D02*
X261Y279D01*
X182Y278D02*
X198Y278D01*
X246Y278D02*
X261Y278D01*
X182Y277D02*
X198Y277D01*
X246Y277D02*
X261Y277D01*
X182Y276D02*
X198Y276D01*
X246Y276D02*
X261Y276D01*
X182Y275D02*
X198Y275D01*
X246Y275D02*
X261Y275D01*
X182Y274D02*
X198Y274D01*
X246Y274D02*
X261Y274D01*
X182Y273D02*
X198Y273D01*
X246Y273D02*
X261Y273D01*
X182Y272D02*
X198Y272D01*
X245Y272D02*
X261Y272D01*
X182Y271D02*
X198Y271D01*
X245Y271D02*
X261Y271D01*
X182Y270D02*
X198Y270D01*
X245Y270D02*
X261Y270D01*
X182Y269D02*
X199Y269D01*
X245Y269D02*
X261Y269D01*
X182Y268D02*
X199Y268D01*
X244Y268D02*
X261Y268D01*
X182Y267D02*
X199Y267D01*
X244Y267D02*
X261Y267D01*
X182Y266D02*
X200Y266D01*
X243Y266D02*
X261Y266D01*
X182Y265D02*
X201Y265D01*
X243Y265D02*
X261Y265D01*
X182Y264D02*
X201Y264D01*
X242Y264D02*
X261Y264D01*
X182Y263D02*
X202Y263D01*
X242Y263D02*
X261Y263D01*
X182Y262D02*
X202Y262D01*
X241Y262D02*
X261Y262D01*
X182Y261D02*
X203Y261D01*
X240Y261D02*
X261Y261D01*
X182Y260D02*
X204Y260D01*
X239Y260D02*
X261Y260D01*
X182Y259D02*
X205Y259D01*
X238Y259D02*
X261Y259D01*
X182Y258D02*
X206Y258D01*
X237Y258D02*
X261Y258D01*
X182Y257D02*
X207Y257D01*
X236Y257D02*
X261Y257D01*
X182Y256D02*
X209Y256D01*
X234Y256D02*
X261Y256D01*
X182Y255D02*
X211Y255D01*
X232Y255D02*
X261Y255D01*
X182Y254D02*
X213Y254D01*
X230Y254D02*
X261Y254D01*
X182Y253D02*
X217Y253D01*
X227Y253D02*
X261Y253D01*
X182Y252D02*
X261Y252D01*
X182Y251D02*
X261Y251D01*
X182Y250D02*
X261Y250D01*
X182Y249D02*
X261Y249D01*
X182Y248D02*
X261Y248D01*
X182Y247D02*
X261Y247D01*
X182Y246D02*
X261Y246D01*
X182Y245D02*
X261Y245D01*
X182Y244D02*
X261Y244D01*
X182Y243D02*
X261Y243D01*
X182Y242D02*
X261Y242D01*
X182Y241D02*
X261Y241D01*
X182Y240D02*
X261Y240D01*
X182Y239D02*
X261Y239D01*
X182Y238D02*
X261Y238D01*
X182Y237D02*
X261Y237D01*
D02*
G04 End of Copper0*
M02*