G04 MADE WITH FRITZING*
G04 WWW.FRITZING.ORG*
G04 DOUBLE SIDED*
G04 HOLES PLATED*
G04 CONTOUR ON CENTER OF CONTOUR VECTOR*
%ASAXBY*%
%FSLAX23Y23*%
%MOIN*%
%OFA0B0*%
%SFA1.0B1.0*%
%ADD10C,0.090000*%
%ADD11C,0.057978*%
%ADD12C,0.087778*%
%ADD13C,0.061496*%
%ADD14C,0.096614*%
%ADD15R,0.001000X0.001000*%
%LNMASK1*%
G90*
G70*
G54D10*
X222Y275D03*
X222Y427D03*
X222Y275D03*
X222Y427D03*
G54D11*
X727Y1332D03*
X924Y1332D03*
X1128Y175D03*
X522Y175D03*
G54D12*
X1322Y1175D03*
X1322Y1075D03*
X1322Y975D03*
X1322Y875D03*
X1322Y775D03*
X1322Y675D03*
X1322Y575D03*
X1322Y475D03*
X2222Y475D03*
X2222Y575D03*
X2222Y675D03*
X2222Y775D03*
X2222Y875D03*
X2222Y975D03*
X2222Y1075D03*
X2222Y1175D03*
G54D13*
X222Y1275D03*
X222Y1175D03*
X222Y1075D03*
X222Y975D03*
X222Y875D03*
X222Y775D03*
X222Y1275D03*
X222Y1175D03*
X222Y1075D03*
X222Y975D03*
X222Y875D03*
X222Y775D03*
G54D14*
X122Y1475D03*
X122Y75D03*
X2222Y75D03*
X2222Y1475D03*
G54D15*
X192Y1306D02*
X252Y1306D01*
X191Y1305D02*
X252Y1305D01*
X191Y1304D02*
X252Y1304D01*
X191Y1303D02*
X252Y1303D01*
X191Y1302D02*
X252Y1302D01*
X191Y1301D02*
X252Y1301D01*
X191Y1300D02*
X252Y1300D01*
X191Y1299D02*
X252Y1299D01*
X191Y1298D02*
X252Y1298D01*
X191Y1297D02*
X252Y1297D01*
X191Y1296D02*
X252Y1296D01*
X191Y1295D02*
X252Y1295D01*
X191Y1294D02*
X252Y1294D01*
X191Y1293D02*
X252Y1293D01*
X191Y1292D02*
X252Y1292D01*
X191Y1291D02*
X252Y1291D01*
X191Y1290D02*
X252Y1290D01*
X191Y1289D02*
X252Y1289D01*
X191Y1288D02*
X252Y1288D01*
X191Y1287D02*
X252Y1287D01*
X191Y1286D02*
X218Y1286D01*
X225Y1286D02*
X252Y1286D01*
X191Y1285D02*
X216Y1285D01*
X228Y1285D02*
X252Y1285D01*
X191Y1284D02*
X214Y1284D01*
X229Y1284D02*
X252Y1284D01*
X191Y1283D02*
X213Y1283D01*
X230Y1283D02*
X252Y1283D01*
X191Y1282D02*
X213Y1282D01*
X231Y1282D02*
X252Y1282D01*
X191Y1281D02*
X212Y1281D01*
X232Y1281D02*
X252Y1281D01*
X191Y1280D02*
X211Y1280D01*
X232Y1280D02*
X252Y1280D01*
X191Y1279D02*
X211Y1279D01*
X232Y1279D02*
X252Y1279D01*
X191Y1278D02*
X211Y1278D01*
X233Y1278D02*
X252Y1278D01*
X191Y1277D02*
X211Y1277D01*
X233Y1277D02*
X252Y1277D01*
X191Y1276D02*
X210Y1276D01*
X233Y1276D02*
X252Y1276D01*
X191Y1275D02*
X211Y1275D01*
X233Y1275D02*
X252Y1275D01*
X191Y1274D02*
X211Y1274D01*
X233Y1274D02*
X252Y1274D01*
X191Y1273D02*
X211Y1273D01*
X233Y1273D02*
X252Y1273D01*
X191Y1272D02*
X211Y1272D01*
X232Y1272D02*
X252Y1272D01*
X191Y1271D02*
X211Y1271D01*
X232Y1271D02*
X252Y1271D01*
X191Y1270D02*
X212Y1270D01*
X231Y1270D02*
X252Y1270D01*
X191Y1269D02*
X213Y1269D01*
X231Y1269D02*
X252Y1269D01*
X191Y1268D02*
X214Y1268D01*
X230Y1268D02*
X252Y1268D01*
X191Y1267D02*
X215Y1267D01*
X229Y1267D02*
X252Y1267D01*
X191Y1266D02*
X216Y1266D01*
X227Y1266D02*
X252Y1266D01*
X191Y1265D02*
X220Y1265D01*
X223Y1265D02*
X252Y1265D01*
X191Y1264D02*
X252Y1264D01*
X191Y1263D02*
X252Y1263D01*
X191Y1262D02*
X252Y1262D01*
X191Y1261D02*
X252Y1261D01*
X191Y1260D02*
X252Y1260D01*
X191Y1259D02*
X252Y1259D01*
X191Y1258D02*
X252Y1258D01*
X191Y1257D02*
X252Y1257D01*
X191Y1256D02*
X252Y1256D01*
X191Y1255D02*
X252Y1255D01*
X191Y1254D02*
X252Y1254D01*
X191Y1253D02*
X252Y1253D01*
X191Y1252D02*
X252Y1252D01*
X191Y1251D02*
X252Y1251D01*
X191Y1250D02*
X252Y1250D01*
X191Y1249D02*
X252Y1249D01*
X191Y1248D02*
X252Y1248D01*
X191Y1247D02*
X252Y1247D01*
X191Y1246D02*
X252Y1246D01*
X192Y1245D02*
X252Y1245D01*
X177Y321D02*
X266Y321D01*
X177Y320D02*
X266Y320D01*
X177Y319D02*
X266Y319D01*
X177Y318D02*
X266Y318D01*
X177Y317D02*
X266Y317D01*
X177Y316D02*
X266Y316D01*
X177Y315D02*
X266Y315D01*
X177Y314D02*
X266Y314D01*
X177Y313D02*
X266Y313D01*
X177Y312D02*
X266Y312D01*
X177Y311D02*
X266Y311D01*
X177Y310D02*
X266Y310D01*
X177Y309D02*
X266Y309D01*
X177Y308D02*
X266Y308D01*
X177Y307D02*
X266Y307D01*
X177Y306D02*
X266Y306D01*
X177Y305D02*
X266Y305D01*
X177Y304D02*
X266Y304D01*
X177Y303D02*
X266Y303D01*
X177Y302D02*
X266Y302D01*
X177Y301D02*
X266Y301D01*
X177Y300D02*
X266Y300D01*
X177Y299D02*
X266Y299D01*
X177Y298D02*
X266Y298D01*
X177Y297D02*
X266Y297D01*
X177Y296D02*
X266Y296D01*
X177Y295D02*
X266Y295D01*
X177Y294D02*
X216Y294D01*
X227Y294D02*
X266Y294D01*
X177Y293D02*
X213Y293D01*
X230Y293D02*
X266Y293D01*
X177Y292D02*
X211Y292D01*
X232Y292D02*
X266Y292D01*
X177Y291D02*
X210Y291D01*
X233Y291D02*
X266Y291D01*
X177Y290D02*
X209Y290D01*
X235Y290D02*
X266Y290D01*
X177Y289D02*
X208Y289D01*
X236Y289D02*
X266Y289D01*
X177Y288D02*
X207Y288D01*
X236Y288D02*
X266Y288D01*
X177Y287D02*
X206Y287D01*
X237Y287D02*
X266Y287D01*
X177Y286D02*
X205Y286D01*
X238Y286D02*
X266Y286D01*
X177Y285D02*
X205Y285D01*
X239Y285D02*
X266Y285D01*
X177Y284D02*
X204Y284D01*
X239Y284D02*
X266Y284D01*
X177Y283D02*
X204Y283D01*
X240Y283D02*
X266Y283D01*
X177Y282D02*
X204Y282D01*
X240Y282D02*
X266Y282D01*
X177Y281D02*
X203Y281D01*
X240Y281D02*
X266Y281D01*
X177Y280D02*
X203Y280D01*
X240Y280D02*
X266Y280D01*
X177Y279D02*
X203Y279D01*
X241Y279D02*
X266Y279D01*
X177Y278D02*
X203Y278D01*
X241Y278D02*
X266Y278D01*
X177Y277D02*
X203Y277D01*
X241Y277D02*
X266Y277D01*
X177Y276D02*
X203Y276D01*
X241Y276D02*
X266Y276D01*
X177Y275D02*
X203Y275D01*
X241Y275D02*
X266Y275D01*
X177Y274D02*
X203Y274D01*
X241Y274D02*
X266Y274D01*
X177Y273D02*
X203Y273D01*
X241Y273D02*
X266Y273D01*
X177Y272D02*
X203Y272D01*
X240Y272D02*
X266Y272D01*
X177Y271D02*
X203Y271D01*
X240Y271D02*
X266Y271D01*
X177Y270D02*
X204Y270D01*
X240Y270D02*
X266Y270D01*
X177Y269D02*
X204Y269D01*
X239Y269D02*
X266Y269D01*
X177Y268D02*
X204Y268D01*
X239Y268D02*
X266Y268D01*
X177Y267D02*
X205Y267D01*
X238Y267D02*
X266Y267D01*
X177Y266D02*
X206Y266D01*
X238Y266D02*
X266Y266D01*
X177Y265D02*
X206Y265D01*
X237Y265D02*
X266Y265D01*
X177Y264D02*
X207Y264D01*
X236Y264D02*
X266Y264D01*
X177Y263D02*
X208Y263D01*
X235Y263D02*
X266Y263D01*
X177Y262D02*
X209Y262D01*
X234Y262D02*
X266Y262D01*
X177Y261D02*
X210Y261D01*
X233Y261D02*
X266Y261D01*
X177Y260D02*
X212Y260D01*
X231Y260D02*
X266Y260D01*
X177Y259D02*
X214Y259D01*
X230Y259D02*
X266Y259D01*
X177Y258D02*
X217Y258D01*
X226Y258D02*
X266Y258D01*
X177Y257D02*
X266Y257D01*
X177Y256D02*
X266Y256D01*
X177Y255D02*
X266Y255D01*
X177Y254D02*
X266Y254D01*
X177Y253D02*
X266Y253D01*
X177Y252D02*
X266Y252D01*
X177Y251D02*
X266Y251D01*
X177Y250D02*
X266Y250D01*
X177Y249D02*
X266Y249D01*
X177Y248D02*
X266Y248D01*
X177Y247D02*
X266Y247D01*
X177Y246D02*
X266Y246D01*
X177Y245D02*
X266Y245D01*
X177Y244D02*
X266Y244D01*
X177Y243D02*
X266Y243D01*
X177Y242D02*
X266Y242D01*
X177Y241D02*
X266Y241D01*
X177Y240D02*
X266Y240D01*
X177Y239D02*
X266Y239D01*
X177Y238D02*
X266Y238D01*
X177Y237D02*
X266Y237D01*
X177Y236D02*
X266Y236D01*
X177Y235D02*
X266Y235D01*
X177Y234D02*
X266Y234D01*
X177Y233D02*
X266Y233D01*
X177Y232D02*
X266Y232D01*
D02*
G04 End of Mask1*
M02*